<svg width="13" height="13" viewBox="0 0 13 13" fill="none" xmlns="http://www.w3.org/2000/svg">
<g clip-path="url(#clip0_1_12180)">
<path d="M9.14753 2.45658C7.96571 1.04352 6.79951 0.125223 6.75043 0.0868341C6.48453 -0.121184 6.09383 0.0681473 6.09383 0.406745V2.19312C6.09383 3.11565 4.87322 3.44039 4.41547 2.63845C4.2741 2.3908 3.92839 2.36277 3.74845 2.58237C2.51873 4.0829 1.42212 5.97438 1.42212 7.9221C1.42212 10.7221 3.70009 13.0001 6.50007 13.0001C9.30005 13.0001 11.578 10.7221 11.578 7.9221C11.578 5.92365 10.4233 3.98195 9.14753 2.45658ZM6.50007 12.1876C4.14806 12.1876 2.23459 10.2741 2.23459 7.9221C2.23459 6.28345 3.17155 4.6626 4.06986 3.48535C5.13407 4.42518 6.9063 3.70297 6.9063 2.19312V1.29335C8.70776 2.93919 10.7655 5.48644 10.7655 7.9221C10.7655 10.2741 8.85207 12.1876 6.50007 12.1876Z" fill="#009933"/>
<path d="M8.17131 5.77342C7.99424 5.63571 7.73902 5.6676 7.60123 5.84469L4.75758 9.50082C4.54867 9.76944 4.7444 10.1565 5.07797 10.1565C5.19903 10.1565 5.31882 10.1026 5.39892 9.99962L8.24258 6.3435C8.38032 6.16641 8.3484 5.91116 8.17131 5.77342Z" fill="#009933"/>
<path d="M7.92185 10.1563C8.37056 10.1563 8.73432 9.79259 8.73432 9.34388C8.73432 8.89516 8.37056 8.5314 7.92185 8.5314C7.47313 8.5314 7.10938 8.89516 7.10938 9.34388C7.10938 9.79259 7.47313 10.1563 7.92185 10.1563Z" fill="#009933"/>
<path d="M5.07834 7.31273C5.52706 7.31273 5.89081 6.94897 5.89081 6.50025C5.89081 6.05154 5.52706 5.68778 5.07834 5.68778C4.62963 5.68778 4.26587 6.05154 4.26587 6.50025C4.26587 6.94897 4.62963 7.31273 5.07834 7.31273Z" fill="#009933"/>
</g>
<defs>
<clipPath id="clip0_1_12180">
<rect width="13" height="13" fill="white"/>
</clipPath>
</defs>
</svg>
