<svg width="29" height="33" viewBox="0 0 29 33" fill="none" xmlns="http://www.w3.org/2000/svg">
<path d="M25.0548 6.6875H3.07957C1.96825 6.6875 1.06396 7.72097 1.06396 8.99105V10.5306V13.8481V23.8229C1.06396 25.0929 1.96825 26.1261 3.07957 26.1261H25.0548C26.1661 26.1261 27.0701 25.0929 27.0701 23.8229V13.8481V10.5306V8.99105C27.0701 7.72097 26.1661 6.6875 25.0548 6.6875ZM1.90073 8.99105C1.90101 8.24807 2.42946 7.64412 3.07929 7.64412H25.0545C25.7043 7.64412 26.2328 8.24839 26.2328 8.99105V10.0523H1.90073V8.99105ZM26.2331 23.8225C26.2331 24.5649 25.7043 25.1691 25.0548 25.1691H3.07957C2.42974 25.1691 1.90101 24.5649 1.90101 23.8225V14.3261H26.2331V23.8225V23.8225ZM26.2331 13.3695H1.90101V11.0086H26.2331V13.3695Z" fill="#009933"/>
<path d="M5.10887 23.2838C5.91383 23.2838 6.5684 22.536 6.5684 21.617C6.5684 20.6974 5.91383 19.949 5.10887 19.949C4.30447 19.949 3.6499 20.6974 3.6499 21.617C3.6499 22.536 4.30447 23.2838 5.10887 23.2838ZM5.10887 20.9056C5.45206 20.9056 5.73135 21.2248 5.73135 21.617C5.73135 22.0086 5.45206 22.3271 5.10887 22.3271C4.76596 22.3271 4.48695 22.0086 4.48695 21.617C4.48695 21.2248 4.76596 20.9056 5.10887 20.9056Z" fill="#009933"/>
<path d="M8.2298 22.1512H20.0221C20.2534 22.1512 20.4406 21.9372 20.4406 21.6729C20.4406 21.4085 20.2534 21.1946 20.0221 21.1946H8.2298C7.9985 21.1946 7.81128 21.4085 7.81128 21.6729C7.81128 21.9372 7.9985 22.1512 8.2298 22.1512Z" fill="#009933"/>
</svg>
