<svg width="29" height="29" viewBox="0 0 29 29" fill="none" xmlns="http://www.w3.org/2000/svg">
<g clip-path="url(#clip0_239_2238)">
<path d="M20.0737 5.97196C17.5282 2.92843 15.0164 0.950566 14.9107 0.867882C14.338 0.419843 13.4965 0.827633 13.4965 1.55692V5.40449C13.4965 7.39149 10.8675 8.09092 9.88154 6.36367C9.57705 5.83027 8.83245 5.7699 8.44489 6.24287C5.79625 9.47479 3.43433 13.5488 3.43433 17.7439C3.43433 23.7746 8.34072 28.681 14.3714 28.681C20.4022 28.681 25.3086 23.7746 25.3086 17.7439C25.3086 13.4395 22.8215 9.25736 20.0737 5.97196ZM14.3714 26.931C9.30559 26.931 5.18427 22.8097 5.18427 17.7439C5.18427 14.2144 7.20233 10.7234 9.13716 8.18777C11.4293 10.212 15.2464 8.65648 15.2464 5.40449V3.46654C19.1265 7.01142 23.5586 12.4978 23.5586 17.7439C23.5586 22.8097 19.4373 26.931 14.3714 26.931Z" fill="#C8C7C7"/>
<path d="M17.9709 13.1158C17.5895 12.8192 17.0398 12.8879 16.7431 13.2693L10.6183 21.1441C10.1683 21.7226 10.5899 22.5563 11.3083 22.5563C11.5691 22.5563 11.8271 22.4402 11.9996 22.2184L18.1244 14.3437C18.4211 13.9623 18.3523 13.4125 17.9709 13.1158Z" fill="#C8C7C7"/>
<path d="M17.4338 22.5562C18.4002 22.5562 19.1837 21.7727 19.1837 20.8063C19.1837 19.8398 18.4002 19.0563 17.4338 19.0563C16.4673 19.0563 15.6838 19.8398 15.6838 20.8063C15.6838 21.7727 16.4673 22.5562 17.4338 22.5562Z" fill="#C8C7C7"/>
<path d="M11.309 16.4315C12.2755 16.4315 13.059 15.648 13.059 14.6815C13.059 13.7151 12.2755 12.9316 11.309 12.9316C10.3426 12.9316 9.55908 13.7151 9.55908 14.6815C9.55908 15.648 10.3426 16.4315 11.309 16.4315Z" fill="#C8C7C7"/>
</g>
<defs>
<clipPath id="clip0_239_2238">
<rect width="28" height="28" fill="white" transform="translate(0.371338 0.680908)"/>
</clipPath>
</defs>
</svg>
