<svg width="65" height="66" viewBox="0 0 65 66" fill="none" xmlns="http://www.w3.org/2000/svg">
<circle cx="32.5" cy="33" r="32" fill="#009933" fill-opacity="0.2"/>
<circle cx="32.5" cy="33" r="32" stroke="black"/>
<circle cx="32.5" cy="33" r="32" stroke="black" stroke-opacity="0.2"/>
<path d="M44.8617 53.2566H21.1382C20.6618 53.2541 20.2036 53.0739 19.853 52.7515C19.5024 52.429 19.2846 51.9874 19.2422 51.513L16.5319 19.1508C16.5248 19.0649 16.5356 18.9785 16.5636 18.897C16.5916 18.8155 16.6363 18.7408 16.6947 18.6775C16.7532 18.6142 16.8241 18.5637 16.9031 18.5293C16.9821 18.4949 17.0674 18.4772 17.1536 18.4775H48.8513C48.9375 18.4772 49.0227 18.4949 49.1017 18.5293C49.1807 18.5637 49.2517 18.6142 49.3101 18.6775C49.3686 18.7408 49.4132 18.8155 49.4413 18.897C49.4693 18.9785 49.4801 19.0649 49.4729 19.1508L46.7626 51.513C46.7202 51.9883 46.5017 52.4306 46.15 52.7532C45.7984 53.0757 45.3389 53.2553 44.8617 53.2566ZM17.8274 19.7208L20.4817 51.4092C20.4963 51.5736 20.5716 51.7266 20.693 51.8383C20.8144 51.9501 20.9732 52.0125 21.1382 52.0134H44.8617C45.0268 52.0127 45.1857 51.9503 45.3073 51.8385C45.4288 51.7268 45.5042 51.5737 45.5188 51.4092L48.1731 19.7208H17.8274Z" fill="#009933"/>
<path d="M51.1339 19.7265H14.8661C14.5089 19.726 14.1666 19.5839 13.9141 19.3314C13.6616 19.0789 13.5195 18.7366 13.519 18.3795V15.2459C13.5193 14.8887 13.6614 14.5463 13.9139 14.2937C14.1665 14.0412 14.5089 13.8991 14.8661 13.8988H51.1339C51.4911 13.8991 51.8335 14.0412 52.0861 14.2937C52.3386 14.5463 52.4807 14.8887 52.481 15.2459V18.3801C52.4803 18.7371 52.3382 19.0793 52.0857 19.3316C51.8332 19.584 51.4909 19.726 51.1339 19.7265ZM14.8661 15.142C14.8385 15.142 14.8121 15.153 14.7926 15.1725C14.7732 15.1919 14.7622 15.2183 14.7622 15.2459V18.3801C14.7622 18.4076 14.7732 18.434 14.7926 18.4535C14.8121 18.4729 14.8385 18.4839 14.8661 18.4839H51.1339C51.1615 18.4839 51.1879 18.4729 51.2073 18.4535C51.2268 18.434 51.2378 18.4076 51.2378 18.3801V15.2459C51.2378 15.2183 51.2268 15.1919 51.2073 15.1725C51.1879 15.153 51.1615 15.142 51.1339 15.142H14.8661Z" fill="#009933"/>
<path d="M38.4779 15.1419H27.5225C27.3576 15.1419 27.1995 15.0765 27.0829 14.9599C26.9663 14.8433 26.9008 14.6852 26.9008 14.5203V11.3706C26.9013 10.9391 27.0729 10.5255 27.378 10.2204C27.6831 9.91527 28.0968 9.74366 28.5282 9.74316H37.4721C37.9036 9.74366 38.3173 9.91527 38.6223 10.2204C38.9274 10.5255 39.0991 10.9391 39.0996 11.3706V14.5203C39.0996 14.6852 39.0341 14.8433 38.9175 14.9599C38.8009 15.0765 38.6428 15.1419 38.4779 15.1419ZM28.1441 13.8987H37.8563V11.3706C37.8563 11.2687 37.8158 11.171 37.7438 11.0989C37.6717 11.0269 37.574 10.9864 37.4721 10.9864H28.5282C28.4264 10.9864 28.3286 11.0269 28.2566 11.0989C28.1846 11.171 28.1441 11.2687 28.1441 11.3706V13.8987Z" fill="#009933"/>
<path d="M39.5034 43.3292C39.4854 43.3292 39.4667 43.3292 39.4487 43.3292C39.2845 43.3149 39.1328 43.2359 39.0268 43.1096C38.9208 42.9834 38.8694 42.8202 38.8837 42.656L40.3066 26.4124C40.3123 26.33 40.3344 26.2496 40.3715 26.1759C40.4087 26.1021 40.4602 26.0365 40.523 25.9829C40.5858 25.9293 40.6586 25.8887 40.7373 25.8635C40.8159 25.8384 40.8988 25.8291 40.9811 25.8364C41.0633 25.8436 41.1433 25.8671 41.2164 25.9056C41.2895 25.9441 41.3541 25.9968 41.4066 26.0605C41.4591 26.1243 41.4983 26.1979 41.5221 26.277C41.5458 26.3561 41.5535 26.4391 41.5448 26.5212L40.1226 42.7623C40.1089 42.9171 40.0377 43.0612 39.9231 43.1661C39.8085 43.271 39.6588 43.3292 39.5034 43.3292Z" fill="#009933"/>
<path d="M33 43.3292C32.8352 43.3292 32.6771 43.2638 32.5605 43.1472C32.4439 43.0306 32.3784 42.8725 32.3784 42.7076V26.4646C32.3784 26.2998 32.4439 26.1417 32.5605 26.0251C32.6771 25.9085 32.8352 25.843 33 25.843C33.1649 25.843 33.323 25.9085 33.4396 26.0251C33.5562 26.1417 33.6217 26.2998 33.6217 26.4646V42.7076C33.6217 42.8725 33.5562 43.0306 33.4396 43.1472C33.323 43.2638 33.1649 43.3292 33 43.3292Z" fill="#009933"/>
<path d="M26.4965 43.3298C26.3406 43.3304 26.1901 43.2724 26.075 43.1672C25.9599 43.0621 25.8884 42.9176 25.8749 42.7622L24.4551 26.5193C24.4464 26.4371 24.4541 26.3541 24.4778 26.275C24.5016 26.1959 24.5408 26.1223 24.5933 26.0586C24.6458 25.9948 24.7105 25.9422 24.7835 25.9037C24.8566 25.8652 24.9366 25.8416 25.0188 25.8344C25.1011 25.8272 25.184 25.8364 25.2626 25.8616C25.3413 25.8867 25.4141 25.9273 25.4769 25.981C25.5397 26.0346 25.5912 26.1002 25.6284 26.1739C25.6655 26.2477 25.6876 26.3281 25.6934 26.4105L27.1163 42.6541C27.1306 42.8183 27.0791 42.9814 26.9731 43.1077C26.8672 43.2339 26.7154 43.3129 26.5512 43.3273C26.535 43.3292 26.5145 43.3298 26.4965 43.3298Z" fill="#009933"/>
<rect x="10.5" y="9" width="45" height="45" stroke="black"/>
<rect x="10.5" y="9" width="45" height="45" stroke="black" stroke-opacity="0.2"/>
</svg>
