<svg width="73" height="72" viewBox="0 0 73 72" fill="none" xmlns="http://www.w3.org/2000/svg">
<circle cx="36.3687" cy="37" r="35" fill="#009933" fill-opacity="0.2"/>
<path opacity="0.7" d="M3.36865 48.5C3.36865 54.0695 9.52936 61.911 15.1554 65.8492C20.7815 69.7875 28.4122 72 36.3686 72C44.3251 72 51.9558 69.7875 57.5819 65.8492C63.2079 61.911 69.8687 54.0695 69.8687 48.5H36.3686H3.36865Z" fill="#C4C4C4"/>
<path d="M32.9897 59.96V61H28.6537V55.4H32.8857V56.44H29.9417V57.656H32.5417V58.664H29.9417V59.96H32.9897ZM38.2857 55.064V61H37.0937V60.504C36.7844 60.8773 36.3364 61.064 35.7497 61.064C35.3444 61.064 34.9764 60.9733 34.6457 60.792C34.3204 60.6107 34.0644 60.352 33.8777 60.016C33.691 59.68 33.5977 59.2907 33.5977 58.848C33.5977 58.4053 33.691 58.016 33.8777 57.68C34.0644 57.344 34.3204 57.0853 34.6457 56.904C34.9764 56.7227 35.3444 56.632 35.7497 56.632C36.299 56.632 36.7284 56.8053 37.0377 57.152V55.064H38.2857ZM35.9657 60.04C36.2804 60.04 36.5417 59.9333 36.7497 59.72C36.9577 59.5013 37.0617 59.2107 37.0617 58.848C37.0617 58.4853 36.9577 58.1973 36.7497 57.984C36.5417 57.7653 36.2804 57.656 35.9657 57.656C35.6457 57.656 35.3817 57.7653 35.1737 57.984C34.9657 58.1973 34.8617 58.4853 34.8617 58.848C34.8617 59.2107 34.9657 59.5013 35.1737 59.72C35.3817 59.9333 35.6457 60.04 35.9657 60.04ZM39.4407 56.696H40.6887V61H39.4407V56.696ZM40.0647 56.096C39.8354 56.096 39.6487 56.0293 39.5047 55.896C39.3607 55.7627 39.2887 55.5973 39.2887 55.4C39.2887 55.2027 39.3607 55.0373 39.5047 54.904C39.6487 54.7707 39.8354 54.704 40.0647 54.704C40.2941 54.704 40.4807 54.768 40.6247 54.896C40.7687 55.024 40.8407 55.184 40.8407 55.376C40.8407 55.584 40.7687 55.7573 40.6247 55.896C40.4807 56.0293 40.2941 56.096 40.0647 56.096ZM44.623 60.792C44.5003 60.8827 44.3483 60.952 44.167 61C43.991 61.0427 43.8043 61.064 43.607 61.064C43.095 61.064 42.6977 60.9333 42.415 60.672C42.1377 60.4107 41.999 60.0267 41.999 59.52V57.752H41.335V56.792H41.999V55.744H43.247V56.792H44.319V57.752H43.247V59.504C43.247 59.6853 43.2923 59.8267 43.383 59.928C43.479 60.024 43.6123 60.072 43.783 60.072C43.9803 60.072 44.1483 60.0187 44.287 59.912L44.623 60.792Z" fill="black"/>
<path d="M36.3687 12C31.4061 12 27.3687 15.5485 27.3687 19.9102C27.3687 24.2718 31.4061 27.8203 36.3687 27.8203C41.3313 27.8203 45.3687 24.2718 45.3687 19.9102C45.3687 15.5485 41.3313 12 36.3687 12Z" fill="#009933"/>
<path d="M47.5664 32.988C45.1024 30.7891 41.8359 29.5781 38.3687 29.5781H34.3687C30.9015 29.5781 27.6349 30.7891 25.1709 32.988C22.719 35.1761 21.3687 38.0644 21.3687 41.1211C21.3687 41.6065 21.8164 42 22.3687 42H50.3687C50.9209 42 51.3687 41.6065 51.3687 41.1211C51.3687 38.0644 50.0183 35.1761 47.5664 32.988Z" fill="#009933"/>
</svg>
