<svg width="31" height="19" viewBox="0 0 31 19" fill="none" xmlns="http://www.w3.org/2000/svg">
<path d="M15.1034 0.121017C9.37157 0.121017 4.17366 3.25695 0.338128 8.35054C0.0251487 8.76784 0.0251487 9.35084 0.338128 9.76815C4.17366 14.8679 9.37157 18.0038 15.1034 18.0038C20.8352 18.0038 26.0331 14.8679 29.8687 9.77428C30.1816 9.35698 30.1816 8.77398 29.8687 8.35667C26.0331 3.25695 20.8352 0.121017 15.1034 0.121017ZM15.5146 15.3588C11.7097 15.5982 8.56765 12.4622 8.80698 8.65124C9.00336 5.50917 11.5502 2.96238 14.6922 2.766C18.4971 2.52666 21.6391 5.66259 21.3998 9.47358C21.1973 12.6095 18.6505 15.1563 15.5146 15.3588ZM15.3243 12.45C13.2746 12.5788 11.5808 10.8912 11.7159 8.84148C11.8202 7.14771 13.1948 5.77919 14.8886 5.66873C16.9383 5.53986 18.6321 7.22749 18.4971 9.2772C18.3866 10.9771 17.012 12.3456 15.3243 12.45Z" fill="#C8C7C7"/>
</svg>
