<svg width="14" height="13" viewBox="0 0 14 13" fill="none" xmlns="http://www.w3.org/2000/svg">
<path d="M11.1361 0.294434C9.70385 0.294434 8.51377 1.15681 8.30485 2.27859H0.876011L0.536133 2.84865L5.68358 8.20143V11.0708C5.68358 11.3568 5.39839 11.5895 5.04783 11.5895H2.91231V12.2944H9.31887V11.5895H7.18335C6.83279 11.5895 6.5476 11.3568 6.5476 11.0708V8.20143L9.88339 4.73256C10.2715 4.88695 10.6979 4.96769 11.1362 4.96769C12.7153 4.96769 14 3.91948 14 2.63105C14 1.34262 12.7153 0.294434 11.1361 0.294434V0.294434ZM10.4671 2.98355L9.22962 4.27036C8.93997 4.11309 8.61066 4.02908 8.26568 4.02908C7.72933 4.02908 7.23021 4.23117 6.86061 4.59789L6.85113 4.60726C6.64849 4.80832 6.38643 4.91904 6.11323 4.91904C5.84002 4.91904 5.578 4.80832 5.37558 4.6075L5.36605 4.59805C4.99625 4.23114 4.49719 4.02908 3.9608 4.02908C3.61707 4.02908 3.28885 4.11245 2.99989 4.26869L1.76405 2.98355H10.4671ZM8.6926 4.82881L6.11559 7.50865L3.53712 4.82731C3.67015 4.76637 3.81383 4.73402 3.96083 4.73402C4.23401 4.73402 4.49607 4.84474 4.69888 5.04594L4.70801 5.05501C5.07781 5.42192 5.57687 5.62398 6.11326 5.62398C6.64964 5.62398 7.1487 5.42192 7.51873 5.05477L7.52778 5.04577C7.73042 4.84472 7.99248 4.73399 8.26568 4.73399C8.41383 4.73404 8.55862 4.76684 8.6926 4.82881ZM11.1361 4.26273C10.894 4.26273 10.6571 4.22734 10.4346 4.15933L11.695 2.84862L11.3551 2.27857H9.18382C9.38191 1.54781 10.1818 0.999394 11.1361 0.999394C12.2388 0.999394 13.136 1.73135 13.136 2.63107C13.136 3.53079 12.2389 4.26273 11.1361 4.26273Z" fill="#707070"/>
</svg>
