<svg width="61" height="60" viewBox="0 0 61 60" fill="none" xmlns="http://www.w3.org/2000/svg">
<circle cx="30.3711" cy="30" r="30" fill="#009933" fill-opacity="0.2"/>
<path d="M15.1148 41.3772C14.909 41.5832 14.909 41.9172 15.115 42.1231L17.3958 44.4035C17.4949 44.5026 17.6291 44.5579 17.7686 44.5579C17.7754 44.5579 17.7821 44.5578 17.789 44.5576C17.9357 44.552 18.0734 44.4854 18.1691 44.3738L21.637 40.3286C21.8266 40.1075 21.801 39.7746 21.5799 39.5849C21.3589 39.3954 21.0259 39.4209 20.8363 39.642L17.7389 43.255L15.8606 41.3771C15.6547 41.1712 15.3208 41.1712 15.1148 41.3772Z" fill="#009933"/>
<path d="M16.4991 22.391C16.3775 22.3275 16.3702 22.2199 16.3766 22.1614C16.3831 22.1029 16.4136 21.9994 16.546 21.9639L30.4275 18.2438C30.7088 18.1684 30.8757 17.8792 30.8003 17.5978C30.725 17.3165 30.4359 17.1496 30.1544 17.2249L16.273 20.9449C15.7574 21.0831 15.3866 21.5152 15.3282 22.0459C15.2698 22.5765 15.5378 23.079 16.011 23.326L26.4111 28.7551L25.0813 33.7187C24.9611 34.1675 25.0854 34.6317 25.4139 34.9602C25.66 35.2064 25.9821 35.3379 26.3168 35.3379C26.429 35.3379 26.5427 35.3231 26.6553 35.2929L31.6181 33.9629L33.3939 37.3656C33.488 37.5459 33.6716 37.6491 33.8618 37.6491C33.944 37.6491 34.0275 37.6298 34.1054 37.5891C34.3636 37.4544 34.4636 37.1357 34.3288 36.8775L30.9661 30.4338C30.9343 30.3728 30.8995 30.3139 30.863 30.2562L46.1376 14.9793L38.4085 43.8297C38.373 43.9622 38.2695 43.9927 38.211 43.9991C38.1523 44.0055 38.0449 43.9982 37.9814 43.8766L35.3903 38.9118C35.2556 38.6534 34.9369 38.5536 34.6789 38.6882C34.4207 38.823 34.3206 39.1416 34.4554 39.3998L37.0465 44.3647C37.2709 44.7949 37.7065 45.0555 38.1824 45.0555C38.23 45.0555 38.278 45.0529 38.3263 45.0477C38.8569 44.9892 39.2889 44.6183 39.4271 44.1027L47.3259 14.6192C47.446 14.1712 47.3222 13.7081 46.9952 13.3797C46.9946 13.379 46.994 13.3783 46.9934 13.3776C46.9927 13.377 46.9921 13.3765 46.9915 13.376C46.6631 13.0487 46.1999 12.9249 45.752 13.0449L32.3734 16.6303C32.0921 16.7057 31.9252 16.995 32.0005 17.2763C32.0758 17.5577 32.365 17.7245 32.6464 17.6493L45.3918 14.2337L30.1172 29.5106C30.0597 29.4741 30.0007 29.4393 29.9397 29.4075L16.4991 22.391ZM31.1182 33.005L26.3824 34.2742C26.2706 34.304 26.1949 34.2497 26.1598 34.2145C26.1246 34.1794 26.0702 34.1037 26.1001 33.9918L27.369 29.2553L29.4517 30.3426C29.575 30.4069 29.6863 30.4886 29.7831 30.5849C29.784 30.5859 29.7848 30.5869 29.7858 30.5879C29.7868 30.5889 29.7878 30.5897 29.7888 30.5907C29.8851 30.6875 29.9668 30.7988 30.0311 30.9221L31.1182 33.005Z" fill="#009933"/>
<path d="M19.6038 35.1257C19.3171 35.0747 19.0431 35.2651 18.9916 35.5518C18.9402 35.8385 19.1309 36.1126 19.4176 36.164C22.2457 36.6713 24.2985 39.1289 24.2985 42.0078C24.2985 45.2816 21.6354 47.9451 18.3621 47.9451C15.0888 47.9451 12.4258 45.2817 12.4258 42.0079C12.4258 39.129 14.4784 36.6714 17.3066 36.1641C17.5933 36.1126 17.7839 35.8385 17.7325 35.5518C17.6811 35.2651 17.4068 35.0746 17.1204 35.1258C13.789 35.7233 11.3711 38.6177 11.3711 42.0079C11.3711 45.8633 14.5072 49 18.3621 49C22.217 49 25.3531 45.8633 25.3531 42.0079C25.3531 38.6177 22.9352 35.7233 19.6038 35.1257Z" fill="#009933"/>
</svg>
