<svg width="64" height="63" viewBox="0 0 64 63" fill="none" xmlns="http://www.w3.org/2000/svg">
<circle cx="31.8713" cy="31.5" r="31.5" fill="#009933" fill-opacity="0.2"/>
<g clip-path="url(#clip0_93_1175)">
<path d="M49.2357 21.2477C49.2418 21.1486 49.2463 21.0488 49.2463 20.9478C49.2463 18.2796 46.6221 15.4314 45.3611 14.0627C45.28 13.9745 45.2043 13.8924 45.1359 13.8173C44.9879 13.655 44.7783 13.5625 44.5585 13.5625C44.3388 13.5625 44.1295 13.655 43.9814 13.8173C43.9128 13.8924 43.8371 13.9745 43.7556 14.063C43.5145 14.3248 43.2231 14.6413 42.91 14.9999C39.749 13.0352 36.1204 12 32.3713 12C28.3064 12 24.3928 13.2137 21.0536 15.5095C20.6981 15.7543 20.608 16.2404 20.8525 16.5959C21.0038 16.8163 21.2483 16.9347 21.497 16.9347C21.6496 16.9347 21.8037 16.8901 21.9389 16.7971C25.0166 14.681 28.6241 13.5625 32.3713 13.5625C35.7591 13.5625 39.0391 14.4796 41.9111 16.2206C40.8577 17.6094 39.8713 19.312 39.8713 20.9478C39.8713 23.5326 41.974 25.6353 44.5588 25.6353C46.2935 25.6353 47.8099 24.6874 48.6204 23.2833C50.0563 25.9529 50.8088 28.9354 50.8088 32C50.8088 42.1666 42.5377 50.4375 32.3713 50.4375C22.2047 50.4375 13.9338 42.1663 13.9338 32C13.9338 28.2521 15.0523 24.645 17.1681 21.5679C17.4125 21.2123 17.3225 20.7262 16.967 20.4818C16.6118 20.2373 16.1253 20.327 15.8806 20.6826C13.5847 24.0212 12.3713 27.9348 12.3713 32C12.3713 37.3421 14.4517 42.3647 18.2292 46.1422C22.0067 49.9196 27.0292 52 32.3713 52C37.7134 52 42.736 49.9196 46.5135 46.1422C50.291 42.3647 52.3713 37.3421 52.3713 32C52.3713 28.1707 51.2877 24.4594 49.2357 21.2477ZM44.5588 24.0728C42.8355 24.0728 41.4338 22.6711 41.4338 20.9478C41.4338 19.0828 43.3589 16.8178 44.5588 15.4991C45.7585 16.8181 47.6838 19.0828 47.6838 20.9478C47.6838 22.6711 46.2819 24.0728 44.5588 24.0728Z" fill="#009933"/>
<path d="M18.7806 19.1915C18.9933 19.1915 19.2051 19.1054 19.3593 18.9357C19.6495 18.6165 19.626 18.1224 19.3068 17.8322C18.9875 17.542 18.4935 17.5655 18.2032 17.8847L18.2029 17.885C17.9127 18.2042 17.9362 18.6983 18.2554 18.9885C18.4053 19.1246 18.5933 19.1915 18.7806 19.1915Z" fill="#009933"/>
<path d="M41.3661 32.7812C41.7973 32.7812 42.1473 32.4315 42.1473 32C42.1473 31.5685 41.7973 31.2188 41.3661 31.2188H35.8772C35.4457 31.2188 35.0959 31.5685 35.0959 32C35.0959 32.4315 35.4457 32.7812 35.8772 32.7812H41.3661Z" fill="#009933"/>
<path d="M28.8655 31.2188H23.377C22.9454 31.2188 22.5957 31.5685 22.5957 32C22.5957 32.4315 22.9454 32.7812 23.377 32.7812H28.8655C29.2971 32.7812 29.6468 32.4315 29.6468 32C29.6468 31.5685 29.2971 31.2188 28.8655 31.2188Z" fill="#009933"/>
<path d="M24.5586 41.5545C24.5586 41.986 24.9086 42.3357 25.3398 42.3357H39.403C39.8342 42.3357 40.1842 41.986 40.1842 41.5545C40.1842 41.123 39.8342 40.7732 39.403 40.7732H25.3398C24.9086 40.7732 24.5586 41.123 24.5586 41.5545Z" fill="#009933"/>
</g>
<defs>
<clipPath id="clip0_93_1175">
<rect width="40" height="40" fill="white" transform="translate(12.3713 12)"/>
</clipPath>
</defs>
</svg>
