<svg width="25" height="25" viewBox="0 0 25 25" fill="none" xmlns="http://www.w3.org/2000/svg">
<path d="M19.8646 0.460449H4.45177C2.0843 0.460449 0.158203 2.38654 0.158203 4.75401V20.1669C0.158203 22.5344 2.0843 24.4604 4.45177 24.4604H19.8647C22.2321 24.4604 24.1582 22.5344 24.1582 20.1669V4.75401C24.1582 2.38654 22.2321 0.460449 19.8646 0.460449ZM22.752 20.1669C22.752 21.7589 21.4567 23.0542 19.8646 23.0542H4.45177C2.8597 23.0542 1.56445 21.7589 1.56445 20.1669V4.75401C1.56445 3.16195 2.8597 1.8667 4.45177 1.8667H19.8647C21.4567 1.8667 22.752 3.16195 22.752 4.75401V20.1669Z" fill="#ABA7A7"/>
<path d="M20.4425 5.73231H9.73339C9.43897 4.85786 8.61186 4.22607 7.63939 4.22607C6.66692 4.22607 5.83981 4.85786 5.54539 5.73231H3.87378C3.48547 5.73231 3.17065 6.04712 3.17065 6.43543C3.17065 6.82375 3.48547 7.13856 3.87378 7.13856H5.54544C5.83986 8.01301 6.66697 8.64479 7.63944 8.64479C8.6119 8.64479 9.43901 8.01301 9.73344 7.13856H20.4425C20.8309 7.13856 21.1457 6.82375 21.1457 6.43543C21.1457 6.04712 20.8309 5.73231 20.4425 5.73231ZM7.63939 7.23854C7.19656 7.23854 6.83628 6.87826 6.83628 6.43543C6.83628 5.99261 7.19656 5.63232 7.63939 5.63232C8.08222 5.63232 8.4425 5.99261 8.4425 6.43543C8.4425 6.87826 8.08222 7.23854 7.63939 7.23854Z" fill="#ABA7A7"/>
<path d="M20.4425 11.7572H18.7708C18.4764 10.8828 17.6493 10.251 16.6768 10.251C15.7044 10.251 14.8773 10.8828 14.5829 11.7572H3.87378C3.48547 11.7572 3.17065 12.072 3.17065 12.4603C3.17065 12.8486 3.48547 13.1635 3.87378 13.1635H14.5829C14.8773 14.0379 15.7045 14.6697 16.6769 14.6697C17.6493 14.6697 18.4765 14.0379 18.7709 13.1635H20.4425C20.8309 13.1635 21.1457 12.8486 21.1457 12.4603C21.1457 12.072 20.8309 11.7572 20.4425 11.7572ZM16.6769 13.2634C16.2341 13.2634 15.8738 12.9032 15.8738 12.4603C15.8738 12.0175 16.2341 11.6572 16.6769 11.6572C17.1197 11.6572 17.48 12.0175 17.48 12.4603C17.48 12.9032 17.1197 13.2634 16.6769 13.2634Z" fill="#ABA7A7"/>
<path d="M20.4425 17.7824H12.7459C12.4515 16.9079 11.6244 16.2761 10.6519 16.2761C9.67944 16.2761 8.85233 16.9079 8.5579 17.7824H3.87378C3.48547 17.7824 3.17065 18.0972 3.17065 18.4855C3.17065 18.8738 3.48547 19.1886 3.87378 19.1886H8.5579C8.85233 20.0631 9.67944 20.6948 10.6519 20.6948C11.6244 20.6948 12.4515 20.0631 12.7459 19.1886H20.4425C20.8309 19.1886 21.1457 18.8738 21.1457 18.4855C21.1457 18.0972 20.8309 17.7824 20.4425 17.7824ZM10.6519 19.2886C10.2091 19.2886 9.84879 18.9284 9.84879 18.4855C9.84879 18.0427 10.2091 17.6824 10.6519 17.6824C11.0947 17.6824 11.455 18.0427 11.455 18.4855C11.455 18.9283 11.0947 19.2886 10.6519 19.2886Z" fill="#ABA7A7"/>
</svg>
