<svg width="65" height="66" viewBox="0 0 65 66" fill="none" xmlns="http://www.w3.org/2000/svg">
<circle cx="32.5" cy="33" r="32.5" fill="#009933" fill-opacity="0.2"/>
<g clip-path="url(#clip0_1_13076)">
<path d="M33 6.5C18.664 6.5 7 18.163 7 32.5C7 46.837 18.664 58.5 33 58.5C47.336 58.5 59 46.837 59 32.5C59 18.163 47.336 6.5 33 6.5ZM33 56.5C19.767 56.5 9 45.733 9 32.5C9 19.267 19.767 8.5 33 8.5C46.233 8.5 57 19.267 57 32.5C57 45.733 46.233 56.5 33 56.5Z" fill="#009933"/>
<path d="M45.252 21.836L29.883 39.126L20.624 31.719C20.194 31.374 19.563 31.445 19.219 31.875C18.874 32.307 18.944 32.936 19.375 33.281L29.375 41.281C29.559 41.428 29.78 41.5 30 41.5C30.276 41.5 30.551 41.386 30.748 41.164L46.748 23.164C47.115 22.752 47.078 22.119 46.665 21.753C46.251 21.385 45.62 21.422 45.252 21.836Z" fill="#009933"/>
</g>
<defs>
<clipPath id="clip0_1_13076">
<rect width="52" height="52" fill="white" transform="translate(7 6.5)"/>
</clipPath>
</defs>
</svg>
