<svg width="14" height="14" viewBox="0 0 14 14" fill="none" xmlns="http://www.w3.org/2000/svg">
<g clip-path="url(#clip0_1_12188)">
<path d="M9.20133 13.125L8.79508 12.5417H9.17696L12.782 8.66541C13.1365 8.28333 13.1365 7.7525 12.782 7.37071C12.4378 7 11.9313 7 11.582 7.37625L10.0355 9.04167H8.09633L8.97925 5.23833L12.752 6.36154L12.8254 6.08154C13.1341 4.87987 13.0149 3.66654 12.4925 2.66612C12.0429 1.80571 11.3171 1.14654 10.4179 0.764164C10.4174 0.752497 10.4201 0.740831 10.4201 0.729164C10.4201 0.487081 10.2386 0.291664 10.0138 0.291664C9.85946 0.291664 9.72946 0.384997 9.65877 0.519164C9.32592 0.440122 8.98467 0.402497 8.64044 0.402497C6.63627 0.402497 4.96252 1.68321 4.47231 3.59333L4.39892 3.87333L8.45871 5.08375L7.53815 9.04167H6.52821L4.63238 10.7917H0.940918C0.491335 10.7917 0.128418 11.1825 0.128418 11.6667C0.128418 12.0575 0.36946 12.3871 0.699876 12.4982L0.263835 13.125H0.128418V13.7083H13.1284V13.125H9.20133ZM10.9539 2.31C10.9293 2.04779 10.8862 1.82583 10.8318 1.63362C11.3331 1.96612 11.7393 2.41529 12.021 2.95196C12.4326 3.73946 12.5518 4.68446 12.3674 5.64112L10.672 5.13683C10.9265 4.05154 11.0268 3.08029 10.9539 2.31ZM5.07654 3.47083C5.57488 2.00375 6.92633 1.02958 8.53779 0.988748C7.8255 1.5575 7.16467 2.63666 6.77169 3.97541L5.07654 3.47083ZM7.29467 4.13C7.87967 2.15541 9.07133 0.936248 9.80556 1.155C10.2281 1.28071 10.3716 1.88416 10.4149 2.36833C10.4799 3.05666 10.3851 3.97862 10.1495 4.98166L7.29467 4.13ZM7.96092 9.625H9.49384L8.4105 10.7917H7.69008L7.96092 9.625ZM6.72863 9.625H7.40273L7.1319 10.7917H5.46384L6.72863 9.625ZM0.670085 11.6667C0.670085 11.5062 0.79196 11.375 0.940918 11.375H8.63529L11.9665 7.79041C12.0156 7.73529 12.0938 7.67083 12.1859 7.67083C12.2753 7.67083 12.3511 7.73208 12.4001 7.78487C12.5434 7.93916 12.5434 8.09666 12.4001 8.25154L8.95217 11.9583H0.940918C0.79196 11.9583 0.670085 11.8271 0.670085 11.6667ZM6.59023 13.125H0.940918L1.34717 12.5417H6.72565L6.59023 13.125ZM7.14842 13.125L7.28383 12.5417H8.118L8.52425 13.125H7.14842Z" fill="#707070"/>
</g>
<defs>
<clipPath id="clip0_1_12188">
<rect width="13" height="14" fill="white" transform="translate(0.128418)"/>
</clipPath>
</defs>
</svg>
