<svg width="65" height="66" viewBox="0 0 65 66" fill="none" xmlns="http://www.w3.org/2000/svg">
<circle cx="32.5" cy="33" r="32.5" fill="#009933" fill-opacity="0.2"/>
<g clip-path="url(#clip0_1_13226)">
<path d="M30.2495 30.5012C24.9652 30.5012 20.6661 26.0152 20.6661 20.5012C20.6661 14.9872 24.9652 10.5012 30.2495 10.5012C35.5337 10.5012 39.8328 14.9872 39.8328 20.5012C39.8328 26.0152 35.5337 30.5012 30.2495 30.5012ZM30.2495 12.5012C26.0213 12.5012 22.5828 16.0892 22.5828 20.5012C22.5828 24.9132 26.0213 28.5012 30.2495 28.5012C34.4776 28.5012 37.9161 24.9132 37.9161 20.5012C37.9161 16.0892 34.4776 12.5012 30.2495 12.5012Z" fill="#009933"/>
<path d="M46.5417 52.5012H13.9583C13.4293 52.5012 13 52.0532 13 51.5012V43.5012C13 38.5392 16.8698 34.5012 21.625 34.5012H38.875C43.6302 34.5012 47.5 38.5392 47.5 43.5012V51.5012C47.5 52.0532 47.0707 52.5012 46.5417 52.5012ZM14.9167 50.5012H45.5833V43.5012C45.5833 39.6412 42.5742 36.5012 38.875 36.5012H21.625C17.9258 36.5012 14.9167 39.6412 14.9167 43.5012V50.5012Z" fill="#009933"/>
<path d="M58.0417 30.5012H42.7083C42.1793 30.5012 41.75 30.0532 41.75 29.5012C41.75 28.9492 42.1793 28.5012 42.7083 28.5012H58.0417C58.5707 28.5012 59 28.9492 59 29.5012C59 30.0532 58.5707 30.5012 58.0417 30.5012Z" fill="#009933"/>
<path d="M50.3747 38.5009C50.1294 38.5009 49.884 38.4029 49.6962 38.2089C49.3225 37.8189 49.3225 37.1849 49.6962 36.7949L56.6844 29.5029L49.6962 22.2109C49.3225 21.8209 49.3225 21.1869 49.6962 20.7969C50.07 20.4069 50.6775 20.4069 51.0513 20.7969L58.718 28.7969C59.0917 29.1869 59.0917 29.8209 58.718 30.2109L51.0513 38.2109C50.8654 38.4029 50.62 38.5009 50.3747 38.5009Z" fill="#009933"/>
</g>
<defs>
<clipPath id="clip0_1_13226">
<rect width="46" height="48" fill="white" transform="translate(13 8.5)"/>
</clipPath>
</defs>
</svg>
