<svg width="51" height="51" viewBox="0 0 51 51" fill="none" xmlns="http://www.w3.org/2000/svg">
<circle cx="25.7732" cy="25.8511" r="25" fill="#009933" fill-opacity="0.2"/>
<g clip-path="url(#clip0_1_12213)">
<path fill-rule="evenodd" clip-rule="evenodd" d="M34.8856 29.4075L33.2731 27.924V22.174C33.2731 18.6435 31.2231 15.688 27.6481 14.906V14.124C27.6481 13.1695 26.8106 12.399 25.7731 12.399C24.7356 12.399 23.8981 13.1695 23.8981 14.124V14.906C20.3106 15.688 18.2731 18.632 18.2731 22.174V27.924L16.6606 29.4075C15.8731 30.132 16.4231 31.374 17.5356 31.374H33.9981C35.1231 31.374 35.6731 30.132 34.8856 29.4075ZM30.7731 29.074H20.7731V22.174C20.7731 19.322 22.6606 16.999 25.7731 16.999C28.8856 16.999 30.7731 19.322 30.7731 22.174V29.074ZM25.7731 34.824C27.1481 34.824 28.2731 33.789 28.2731 32.524H23.2731C23.2731 33.789 24.3856 34.824 25.7731 34.824Z" fill="#009933"/>
<circle cx="32.2732" cy="17.324" r="3.5" fill="#F82020"/>
</g>
<defs>
<clipPath id="clip0_1_12213">
<rect width="20" height="23" fill="white" transform="translate(15.7732 11.824)"/>
</clipPath>
</defs>
</svg>
