<svg width="61" height="60" viewBox="0 0 61 60" fill="none" xmlns="http://www.w3.org/2000/svg">
<circle cx="30.3711" cy="30" r="30" fill="#009933" fill-opacity="0.2"/>
<path d="M29.863 50.1275C26.9469 50.1243 24.0648 49.5011 21.408 48.2991C21.3241 48.2628 21.2482 48.2102 21.1848 48.1443C21.1214 48.0785 21.0718 48.0007 21.0387 47.9154C21.0057 47.8302 20.99 47.7392 20.9924 47.6478C20.9949 47.5564 21.0155 47.4665 21.0531 47.3831C21.0907 47.2998 21.1445 47.2248 21.2113 47.1624C21.2782 47.1001 21.3568 47.0516 21.4425 47.02C21.5283 46.9883 21.6195 46.974 21.7108 46.9779C21.8021 46.9818 21.8918 47.0038 21.9745 47.0427C24.2784 48.0796 26.764 48.6526 29.2893 48.7289C31.8147 48.8051 34.3303 48.3833 36.6926 47.4873C39.0549 46.5913 41.2175 45.2388 43.0571 43.507C44.8967 41.7752 46.3771 39.698 47.4139 37.394C48.7856 34.3272 49.3341 30.9556 49.0053 27.6121C48.6764 24.2685 47.4816 21.0685 45.5386 18.3276C45.4326 18.1787 45.3902 17.9937 45.4207 17.8135C45.4511 17.6332 45.5519 17.4725 45.7009 17.3665C45.8498 17.2606 46.0348 17.2182 46.215 17.2487C46.3953 17.2791 46.556 17.3799 46.6619 17.5289C48.7443 20.4664 50.0247 23.8962 50.3769 27.4797C50.7291 31.0632 50.1409 34.6765 48.6702 37.9633C47.0358 41.5838 44.3926 44.6565 41.0572 46.8138C37.7217 48.9711 33.8353 50.1216 29.863 50.1275Z" fill="#009933"/>
<path d="M16.7628 15.1786C16.6228 15.1787 16.4861 15.1361 16.3708 15.0566C16.2556 14.977 16.1674 14.8643 16.1178 14.7333C16.0683 14.6023 16.0598 14.4594 16.0935 14.3235C16.1272 14.1876 16.2016 14.0652 16.3066 13.9726C16.8483 13.4977 17.4152 13.0523 18.0047 12.6383C18.154 12.5326 18.3391 12.4906 18.5193 12.5214C18.6996 12.5522 18.8602 12.6534 18.9658 12.8027C19.0715 12.9519 19.1135 13.137 19.0827 13.3172C19.0518 13.4975 18.9507 13.6581 18.8014 13.7637C18.2509 14.1481 17.7217 14.5622 17.2163 15.0043C17.0913 15.1155 16.9301 15.1775 16.7628 15.1786Z" fill="#009933"/>
<path d="M12.5725 40.0791C12.4512 40.0794 12.3319 40.0478 12.2267 39.9873C12.1216 39.9268 12.0343 39.8396 11.9736 39.7345C9.29482 35.0813 8.54989 29.5624 9.89913 24.3656C9.92013 24.2762 9.95877 24.192 10.0128 24.1178C10.0668 24.0436 10.135 23.9809 10.2136 23.9335C10.2921 23.886 10.3794 23.8547 10.4702 23.8414C10.561 23.8281 10.6535 23.8331 10.7424 23.856C10.8312 23.879 10.9146 23.9194 10.9876 23.975C11.0606 24.0306 11.1218 24.1003 11.1675 24.1798C11.2133 24.2594 11.2426 24.3473 11.254 24.4383C11.2653 24.5294 11.2583 24.6218 11.2334 24.7102C9.97682 29.5578 10.6722 34.7049 13.17 39.0453C13.2305 39.1501 13.2624 39.269 13.2624 39.3901C13.2623 39.5111 13.2304 39.63 13.1699 39.7348C13.1093 39.8396 13.0222 39.9266 12.9173 39.987C12.8125 40.0474 12.6935 40.0792 12.5725 40.0791Z" fill="#009933"/>
<path d="M12.4621 20.4855C12.3421 20.4853 12.2242 20.4538 12.1201 20.3941C12.016 20.3343 11.9293 20.2484 11.8686 20.1449C11.8079 20.0414 11.7753 19.9238 11.774 19.8038C11.7727 19.6837 11.8027 19.5655 11.8612 19.4606C12.201 18.8484 12.573 18.2547 12.9756 17.6818C13.0276 17.6072 13.0938 17.5436 13.1705 17.4947C13.2472 17.4458 13.3328 17.4126 13.4224 17.3969C13.512 17.3813 13.6038 17.3835 13.6926 17.4035C13.7813 17.4235 13.8652 17.4609 13.9394 17.5134C14.0136 17.566 14.0767 17.6328 14.125 17.7098C14.1733 17.7869 14.2059 17.8728 14.2209 17.9625C14.2358 18.0522 14.2329 18.144 14.2122 18.2326C14.1915 18.3211 14.1535 18.4047 14.1004 18.4785C13.7266 19.0111 13.3815 19.5633 13.0666 20.1326C13.0065 20.24 12.9188 20.3294 12.8125 20.3915C12.7062 20.4535 12.5852 20.486 12.4621 20.4855Z" fill="#009933"/>
<path d="M38.0515 12.0153C37.9541 12.0154 37.8578 11.9947 37.769 11.9546C33.1778 9.87754 27.9531 9.69331 23.2271 11.4419C23.0562 11.502 22.8685 11.4924 22.7047 11.4153C22.5408 11.3381 22.4139 11.1996 22.3514 11.0296C22.2889 10.8595 22.2959 10.6718 22.3707 10.5068C22.4456 10.3419 22.5824 10.2131 22.7515 10.1483C27.8148 8.27484 33.4125 8.47295 38.3307 10.6996C38.4744 10.7643 38.5917 10.8763 38.6629 11.017C38.7341 11.1577 38.7549 11.3185 38.7218 11.4726C38.6888 11.6268 38.6039 11.765 38.4812 11.8641C38.3586 11.9632 38.2058 12.0173 38.0481 12.0173L38.0515 12.0153Z" fill="#009933"/>
<path d="M32.7926 14.0173C32.6311 14.0177 32.4746 13.9613 32.3504 13.8579C32.2263 13.7546 32.1423 13.611 32.1133 13.4521C32.0842 13.2932 32.1119 13.1292 32.1915 12.9886C32.2711 12.8481 32.3975 12.7399 32.5486 12.6831L37.1662 10.9318L35.4143 6.31428C35.3496 6.14328 35.3555 5.95359 35.4306 5.78692C35.5058 5.62026 35.6441 5.49027 35.8151 5.42557C35.9861 5.36086 36.1758 5.36673 36.3424 5.44189C36.5091 5.51705 36.6391 5.65534 36.7038 5.82633L38.699 11.0904C38.7637 11.2612 38.7579 11.4507 38.683 11.6173C38.608 11.7838 38.47 11.9138 38.2992 11.9787L33.0352 13.9774C32.9575 14.0053 32.8752 14.0189 32.7926 14.0173Z" fill="#009933"/>
<path d="M23.6815 53.6216C23.5415 53.6217 23.4048 53.5791 23.2896 53.4996C23.1743 53.42 23.086 53.3073 23.0365 53.1763L21.0413 47.9123C20.9766 47.7415 20.9823 47.552 21.0573 47.3854C21.1322 47.2188 21.2702 47.0888 21.441 47.0239L26.705 45.0253C26.7899 44.9921 26.8805 44.9761 26.9715 44.9782C27.0626 44.9802 27.1524 45.0003 27.2356 45.0373C27.3189 45.0743 27.394 45.1274 27.4566 45.1936C27.5192 45.2597 27.5681 45.3377 27.6004 45.4229C27.6327 45.508 27.6478 45.5988 27.6448 45.6898C27.6418 45.7809 27.6208 45.8704 27.5829 45.9533C27.5451 46.0362 27.4912 46.1107 27.4244 46.1727C27.3576 46.2346 27.2792 46.2827 27.1937 46.3141L22.5761 48.0653L24.328 52.6829C24.3687 52.7876 24.3831 52.9008 24.3701 53.0124C24.3571 53.124 24.3169 53.2307 24.2532 53.3233C24.1894 53.4158 24.104 53.4914 24.0044 53.5434C23.9048 53.5954 23.7939 53.6222 23.6815 53.6216Z" fill="#009933"/>
<path d="M37.5023 37.7082H23.6192C23.2521 37.7078 22.9001 37.5617 22.6406 37.302C22.3811 37.0422 22.2354 36.6901 22.2354 36.3229V28.1974C22.2354 27.8302 22.3811 27.4781 22.6406 27.2183C22.9001 26.9586 23.2521 26.8125 23.6192 26.8121H37.5023C37.8694 26.8125 38.2214 26.9586 38.4809 27.2183C38.7404 27.4781 38.8862 27.8302 38.8862 28.1974V36.3229C38.8862 36.6901 38.7404 37.0422 38.4809 37.302C38.2214 37.5617 37.8694 37.7078 37.5023 37.7082ZM23.6192 28.1905L23.6137 28.1953V36.3229L37.5023 36.3277L37.5078 28.1953L23.6192 28.1905Z" fill="#009933"/>
<path d="M35.4199 28.1906H25.7024C25.5196 28.1906 25.3443 28.118 25.215 27.9887C25.0858 27.8595 25.0132 27.6842 25.0132 27.5014V23.338C25.0361 21.8817 25.6308 20.4929 26.6687 19.4712C27.7066 18.4494 29.1047 17.8768 30.5612 17.8768C32.0176 17.8768 33.4157 18.4494 34.4536 19.4712C35.4916 20.4929 36.0862 21.8817 36.1091 23.338V27.5014C36.1091 27.6842 36.0365 27.8595 35.9073 27.9887C35.778 28.118 35.6027 28.1906 35.4199 28.1906ZM26.3916 26.8122H34.7307V23.338C34.7109 22.2453 34.2628 21.204 33.4831 20.4383C32.7033 19.6726 31.654 19.2435 30.5612 19.2435C29.4683 19.2435 28.419 19.6726 27.6392 20.4383C26.8595 21.204 26.4114 22.2453 26.3916 23.338V26.8122Z" fill="#009933"/>
<path d="M30.5603 33.7729C30.3775 33.7729 30.2022 33.7003 30.073 33.5711C29.9437 33.4418 29.8711 33.2665 29.8711 33.0837V31.4366C29.8711 31.2538 29.9437 31.0785 30.073 30.9492C30.2022 30.82 30.3775 30.7474 30.5603 30.7474C30.7431 30.7474 30.9184 30.82 31.0476 30.9492C31.1769 31.0785 31.2495 31.2538 31.2495 31.4366V33.0837C31.2495 33.2665 31.1769 33.4418 31.0476 33.5711C30.9184 33.7003 30.7431 33.7729 30.5603 33.7729Z" fill="#009933"/>
</svg>
