<svg width="31" height="31" viewBox="0 0 31 31" fill="none" xmlns="http://www.w3.org/2000/svg">
<g clip-path="url(#clip0_239_2245)">
<path d="M18.8401 25.8059C17.9963 24.9622 17.8088 23.7434 18.1838 22.7122L15.0901 19.6184C13.5901 18.1184 13.6838 15.4934 15.3713 13.8059L20.0588 18.4934" stroke="#C8C7C7" stroke-width="2" stroke-miterlimit="10" stroke-linecap="round" stroke-linejoin="round"/>
<path d="M12.2776 25.3372C12.8401 25.9934 13.4963 26.5559 14.2463 26.9309C14.9026 27.3059 15.3713 28.0559 15.3713 28.8059" stroke="#C8C7C7" stroke-width="2" stroke-miterlimit="10" stroke-linecap="round" stroke-linejoin="round"/>
<path d="M17.2463 23.1809H7.87134C6.84009 23.1809 5.99634 22.3372 5.99634 21.3059V5.36841C5.99634 4.33716 6.84009 3.49341 7.87134 3.49341H17.2463C18.2776 3.49341 19.1213 4.33716 19.1213 5.36841V17.5559" stroke="#C8C7C7" stroke-width="2" stroke-miterlimit="10" stroke-linecap="round" stroke-linejoin="round"/>
<path d="M9.74634 3.49341V23.1809" stroke="#C8C7C7" stroke-width="2" stroke-miterlimit="10" stroke-linecap="round" stroke-linejoin="round"/>
<path d="M15.3713 6.30591V10.0559" stroke="#C8C7C7" stroke-width="2" stroke-miterlimit="10" stroke-linecap="round" stroke-linejoin="round"/>
<path d="M23.8088 28.8059V19.8997C23.8088 16.8059 21.9338 14.0872 19.1213 12.9622" stroke="#C8C7C7" stroke-width="2" stroke-miterlimit="10" stroke-linecap="round" stroke-linejoin="round"/>
</g>
<defs>
<clipPath id="clip0_239_2245">
<rect width="30" height="30" fill="white" transform="translate(0.371338 0.680908)"/>
</clipPath>
</defs>
</svg>
