<svg width="31" height="31" viewBox="0 0 31 31" fill="none" xmlns="http://www.w3.org/2000/svg">
<path d="M15.1343 5.11816C9.27547 5.11816 4.50928 9.88453 4.50928 15.7431C4.50928 21.6018 9.27547 26.3681 15.1343 26.3681C20.9931 26.3681 25.7592 21.6019 25.7592 15.7431C25.7592 9.88436 20.9931 5.11816 15.1343 5.11816ZM15.1343 25.1181C9.96489 25.1181 5.75926 20.9125 5.75926 15.7431C5.75926 10.5738 9.96489 6.36814 15.1343 6.36814C20.3036 6.36814 24.5093 10.5738 24.5093 15.7431C24.5093 20.9125 20.3036 25.1181 15.1343 25.1181Z" fill="#C8C7C7"/>
<path d="M15.1343 1.99316C7.55226 1.99316 1.38428 8.16115 1.38428 15.7432C1.38428 23.3252 7.55226 29.4932 15.1343 29.4932C22.7163 29.4932 28.8843 23.3252 28.8843 15.7432C28.8843 8.16115 22.7163 1.99316 15.1343 1.99316ZM15.1343 28.2432C8.24191 28.2432 2.63432 22.6357 2.63432 15.7432C2.63432 8.85062 8.24191 3.2432 15.1343 3.2432C22.0267 3.2432 27.6343 8.85062 27.6343 15.7432C27.6343 22.6357 22.0267 28.2432 15.1343 28.2432V28.2432Z" fill="#C8C7C7"/>
<path d="M14.8298 21.0738C14.1671 21.0738 13.5558 20.9524 12.9958 20.7098C12.4451 20.4578 11.9925 20.1031 11.6378 19.6458L12.8978 18.1338C13.4298 18.8524 14.0365 19.2118 14.7178 19.2118C15.6418 19.2118 16.1038 18.6704 16.1038 17.5878V12.9258H12.6598V11.1058H18.3578V17.4618C18.3578 18.6658 18.0591 19.5711 17.4618 20.1778C16.8645 20.7751 15.9872 21.0738 14.8298 21.0738Z" fill="#C8C7C7"/>
</svg>
