<svg width="73" height="72" viewBox="0 0 73 72" fill="none" xmlns="http://www.w3.org/2000/svg">
<circle cx="36.3689" cy="36" r="36" fill="#009933" fill-opacity="0.2"/>
<path d="M36.3689 19C31.4063 19 27.3689 22.5485 27.3689 26.9102C27.3689 31.2718 31.4063 34.8203 36.3689 34.8203C41.3315 34.8203 45.3689 31.2718 45.3689 26.9102C45.3689 22.5485 41.3315 19 36.3689 19Z" fill="#009933"/>
<path d="M47.5666 39.988C45.1026 37.7891 41.8362 36.5781 38.3689 36.5781H34.3689C30.9017 36.5781 27.6352 37.7891 25.1712 39.988C22.7192 42.1761 21.3689 45.0644 21.3689 48.1211C21.3689 48.6065 21.8166 49 22.3689 49H50.3689C50.9212 49 51.3689 48.6065 51.3689 48.1211C51.3689 45.0644 50.0186 42.1761 47.5666 39.988Z" fill="#009933"/>
</svg>
