<svg width="21" height="20" viewBox="0 0 21 20" fill="none" xmlns="http://www.w3.org/2000/svg">
<path d="M20.3312 18.2168L15.4008 13.2662C16.6685 11.8113 17.3631 9.98069 17.3631 8.07499C17.3631 3.62251 13.6109 0 8.99916 0C4.38738 0 0.635254 3.62251 0.635254 8.07499C0.635254 12.5275 4.38738 16.15 8.99916 16.15C10.7305 16.15 12.3804 15.6458 13.791 14.6888L18.7588 19.677C18.9664 19.8852 19.2457 20 19.545 20C19.8282 20 20.097 19.8957 20.301 19.7061C20.7345 19.3034 20.7483 18.6357 20.3312 18.2168ZM8.99916 2.10652C12.408 2.10652 15.1812 4.78391 15.1812 8.07499C15.1812 11.3661 12.408 14.0435 8.99916 14.0435C5.59032 14.0435 2.81714 11.3661 2.81714 8.07499C2.81714 4.78391 5.59032 2.10652 8.99916 2.10652Z" fill="#C4C4C4"/>
</svg>
