<svg width="27" height="27" viewBox="0 0 27 27" fill="none" xmlns="http://www.w3.org/2000/svg">
<path d="M13.3713 16.9309C15.1663 16.9309 16.6213 15.4758 16.6213 13.6809C16.6213 11.886 15.1663 10.4309 13.3713 10.4309C11.5764 10.4309 10.1213 11.886 10.1213 13.6809C10.1213 15.4758 11.5764 16.9309 13.3713 16.9309Z" stroke="#C8C7C7" stroke-width="2" stroke-miterlimit="10" stroke-linecap="round" stroke-linejoin="round"/>
<path d="M22.9248 9.10328L22.1123 7.69603C21.6638 6.91847 20.6701 6.65278 19.8926 7.10128L19.4652 7.34828C17.8402 8.28591 15.8089 7.11347 15.8089 5.23741V4.74341C15.8089 3.8456 15.0817 3.11841 14.1839 3.11841H12.5589C11.6611 3.11841 10.9339 3.8456 10.9339 4.74341V5.23741C10.9339 7.11347 8.90268 8.28672 7.27768 7.34828L6.85031 7.10128C6.07275 6.65278 5.07906 6.91847 4.63056 7.69603L3.81806 9.10328C3.36956 9.88085 3.63525 10.8745 4.41281 11.323L4.84018 11.57C6.46518 12.5085 6.46518 14.8533 4.84018 15.7918L4.41281 16.0388C3.63525 16.4873 3.36956 17.481 3.81806 18.2585L4.63056 19.6658C5.07906 20.4433 6.07275 20.709 6.85031 20.2605L7.27768 20.0135C8.90268 19.0751 10.9339 20.2483 10.9339 22.1244V22.6184C10.9339 23.5162 11.6611 24.2434 12.5589 24.2434H14.1839C15.0817 24.2434 15.8089 23.5162 15.8089 22.6184V22.1244C15.8089 20.2483 17.8402 19.0751 19.4652 20.0135L19.8926 20.2605C20.6701 20.709 21.6638 20.4433 22.1123 19.6658L22.9248 18.2585C23.3733 17.481 23.1076 16.4873 22.3301 16.0388L21.9027 15.7918C20.2777 14.8533 20.2777 12.5085 21.9027 11.57L22.3301 11.323C23.1076 10.8745 23.3741 9.88085 22.9248 9.10328Z" stroke="#C8C7C7" stroke-width="2" stroke-miterlimit="10" stroke-linecap="round" stroke-linejoin="round"/>
</svg>
