<svg width="31" height="31" viewBox="0 0 31 31" fill="none" xmlns="http://www.w3.org/2000/svg">
<g clip-path="url(#clip0_239_2254)">
<path d="M3.18384 8.18091C3.18384 6.58716 4.40259 5.36841 5.99634 5.36841H9.74634" stroke="#C8C7C7" stroke-width="2" stroke-miterlimit="10" stroke-linecap="round" stroke-linejoin="round"/>
<path d="M18.1838 18.4934C18.1838 16.4309 19.8713 14.7434 21.9338 14.7434H25.6838C26.7151 14.7434 27.5588 13.8997 27.5588 12.8684C27.5588 11.8372 26.7151 10.9934 25.6838 10.9934H5.99634C4.40259 10.9934 3.18384 9.68091 3.18384 8.18091V23.1809C3.18384 24.6809 4.40259 25.9934 5.99634 25.9934H25.6838C26.7151 25.9934 27.5588 25.1497 27.5588 24.1184C27.5588 23.0872 26.7151 22.2434 25.6838 22.2434H21.9338C19.8713 22.2434 18.1838 20.5559 18.1838 18.4934Z" stroke="#C8C7C7" stroke-width="2" stroke-miterlimit="10" stroke-linecap="round" stroke-linejoin="round"/>
<path d="M10.6838 8.18091L22.8713 3.49341L24.7463 8.18091H6.93384" stroke="#C8C7C7" stroke-width="2" stroke-miterlimit="10" stroke-linecap="round" stroke-linejoin="round"/>
<path d="M21.9338 18.4934H23.8088" stroke="#C8C7C7" stroke-width="2" stroke-miterlimit="10" stroke-linecap="round" stroke-linejoin="round"/>
<path d="M27.5588 12.8684V24.1184" stroke="#C8C7C7" stroke-width="2" stroke-miterlimit="10" stroke-linecap="round" stroke-linejoin="round"/>
</g>
<defs>
<clipPath id="clip0_239_2254">
<rect width="30" height="30" fill="white" transform="translate(0.371338 0.680908)"/>
</clipPath>
</defs>
</svg>
