<svg width="16" height="12" viewBox="0 0 16 12" fill="none" xmlns="http://www.w3.org/2000/svg">
<path d="M15.8678 8.49233C14.5841 7.59617 13.3124 6.98916 12.0819 6.68435C12.676 4.75047 12.0479 2.89917 12.0173 2.81129C11.9553 2.63315 11.7343 2.54594 11.5666 2.63715C10.9744 2.95935 10.4395 3.30865 9.96998 3.67886C9.64902 2.5564 9.07113 1.39299 8.24745 0.213034C8.12467 0.0372118 7.85112 0.0362611 7.72775 0.213034C6.90416 1.39277 6.32634 2.55599 6.00534 3.67833C5.53596 3.3083 5.00133 2.95916 4.40944 2.63712C4.2411 2.54547 4.02091 2.63274 3.9587 2.81126C3.92805 2.89923 3.29867 4.75436 3.89598 6.69047C2.68145 6.99039 1.41711 7.59531 0.132223 8.49223C-0.0435987 8.615 -0.0445495 8.88856 0.132223 9.01193C2.05723 10.3558 3.91433 11.036 5.65651 11.0359C6.45754 11.0356 7.25666 10.8866 7.99972 10.5861C8.64149 10.8457 9.42445 11.0359 10.3426 11.0359C10.842 11.0359 10.8377 10.4021 10.3429 10.4021C9.76979 10.4021 9.25557 10.3198 8.80175 10.1916C8.9848 10.0843 9.14865 9.97579 9.2923 9.87181C9.81495 9.49361 10.3629 9.23824 10.8301 8.7714C11.2602 8.34164 11.6092 7.83743 11.8576 7.28233C12.9128 7.5331 14.0074 8.02596 15.1203 8.75213C14.3501 9.255 13.5892 9.64705 12.8534 9.91992C12.472 10.0612 12.691 10.6561 13.0736 10.5142C13.9823 10.1773 14.9224 9.67193 15.8678 9.012C16.0436 8.88926 16.0446 8.6157 15.8678 8.49233ZM7.98758 0.9605C8.74107 2.11431 9.24185 3.2415 9.47791 4.31639C9.89491 6.2152 9.44838 8.34167 7.98758 9.69633C6.52678 8.34167 6.08025 6.2152 6.49725 4.31639C6.73331 3.24146 7.23409 2.11431 7.98758 0.9605ZM4.45571 3.39124C4.97344 3.69515 5.43718 4.02062 5.84067 4.36228C5.51755 6.01817 5.78673 7.75003 6.72539 9.16624C4.62535 7.98986 3.92434 5.65991 4.45571 3.39124ZM0.880259 8.75175C1.99315 8.02504 3.08044 7.53424 4.12108 7.28829C4.64139 8.44695 5.59158 9.32114 6.7194 9.88017C6.86432 9.98456 7.02798 10.0924 7.20979 10.1985C4.83166 10.8773 2.41689 9.74954 0.880259 8.75175ZM9.2493 9.16703C10.1883 7.75072 10.4576 6.01893 10.1346 4.36288C10.5383 4.021 11.0023 3.69534 11.5203 3.39124C12.0518 5.66092 11.3503 7.99075 9.2493 9.16703Z" fill="#707070"/>
<path d="M12.0417 10.503C11.9762 10.3433 11.7871 10.2653 11.6278 10.3316C11.4686 10.3978 11.3905 10.5856 11.4567 10.7451C11.5229 10.9045 11.7107 10.9829 11.8703 10.9166C12.0296 10.8505 12.1082 10.6626 12.0417 10.503Z" fill="#707070"/>
</svg>
